# Blender 4.0.2
# www.blender.org
mtllib CadreDePorte.mtl
o Cube
v 2.000000 4.000000 -0.200000
v 1.800000 3.720000 -0.200000
v 2.000000 -4.000000 -0.200000
v 1.800000 -3.880000 -0.200000
v 2.000000 4.000000 0.200000
v 1.800000 3.720000 0.200000
v 1.800000 -3.880000 0.200000
v 2.000000 -4.000000 0.200000
v -2.000000 4.000000 -0.200000
v -1.800000 3.720000 -0.200000
v -2.000000 -4.000000 -0.200000
v -1.800000 -3.880000 -0.200000
v -2.000000 4.000000 0.200000
v -1.800000 3.720000 0.200000
v -2.000000 -4.000000 0.200000
v -1.800000 -3.880000 0.200000
v 0.000000 3.720000 0.000000
vn -0.0000 1.0000 -0.0000
vn -0.0000 -0.0000 1.0000
vn -1.0000 -0.0000 -0.0000
vn -0.0000 -1.0000 -0.0000
vn 1.0000 -0.0000 -0.0000
vn -0.0000 -0.0000 -1.0000
vt 0.625000 0.500000
vt 0.875000 0.500000
vt 0.875000 0.750000
vt 0.625000 0.750000
vt 0.375000 0.750000
vt 0.625000 1.000000
vt 0.375000 1.000000
vt 0.378750 0.987500
vt 0.616250 0.987500
vt 0.616250 0.762500
vt 0.378750 0.762500
vt 0.375000 0.000000
vt 0.625000 0.000000
vt 0.625000 0.250000
vt 0.375000 0.250000
vt 0.125000 0.500000
vt 0.375000 0.500000
vt 0.125000 0.750000
vt 0.378750 0.487500
vt 0.616250 0.487500
vt 0.616250 0.262500
vt 0.378750 0.262500
vt 0.750000 0.625000
s 0
usemtl Material
f 1/1/1 9/2/1 13/3/1 5/4/1
f 8/5/2 5/4/2 13/6/2 15/7/2 16/8/2 14/9/2 6/10/2 7/11/2
f 16/8/2 15/7/2 8/5/2 7/11/2
f 15/12/3 13/13/3 9/14/3 11/15/3
f 11/16/4 3/17/4 8/5/4 15/18/4
f 3/17/5 1/1/5 5/4/5 8/5/5
f 9/14/6 1/1/6 3/17/6 4/19/6 2/20/6 10/21/6 12/22/6 11/15/6
f 3/17/6 11/15/6 12/22/6 4/19/6
f 2/1/4 6/4/4 14/3/4 17/23/4 10/2/4
f 10/2/4 17/23/4 14/3/4
f 10/14/5 14/13/5 16/12/5 12/15/5
f 12/16/1 16/18/1 7/5/1 4/17/1
f 6/4/3 2/1/3 4/17/3 7/5/3
